<svg width="40" height="40" viewBox="0 0 40 40" fill="none" xmlns="http://www.w3.org/2000/svg">
<rect width="40" height="40" rx="20" fill="#F3CB8E" fill-opacity="0.1"/>
<path d="M13.9968 20.76L21.3723 13.786C22.8293 12.4083 25.1347 12.249 26.6454 13.5673C28.3748 15.0751 28.3963 17.7092 26.765 19.2517L18.1486 27.3991C17.2353 28.2626 15.786 28.3916 14.8384 27.5709C13.7449 26.624 13.7298 24.9743 14.7546 24.0053L22.0744 17.0839C22.4578 16.7214 23.0682 16.7385 23.4308 17.122C23.7934 17.5054 23.7764 18.1158 23.3929 18.4784L17.2931 24.2462C17.0073 24.5164 16.9944 24.9776 17.2647 25.2634C17.535 25.5493 17.9962 25.5622 18.282 25.292L24.2843 19.6165C25.1975 18.7529 25.4073 17.3131 24.6409 16.3211C23.7566 15.1764 22.1103 15.0691 21.0855 16.0381L13.8842 22.8474C12.4272 24.2251 12.1393 26.5179 13.3711 28.0999C14.7864 29.9179 17.4086 30.0797 19.0399 28.5372L27.5936 20.4491C29.5943 18.5573 30.0014 15.399 28.3042 13.227C26.3443 10.7354 22.7467 10.5055 20.5019 12.6281L13.0079 19.7142C12.722 19.9845 12.7092 20.4456 12.9795 20.7315C13.2498 21.0174 13.7109 21.0303 13.9968 20.76Z" fill="#F3CB8E"/>
</svg>
