<svg width="32" height="24" viewBox="0 0 32 24" fill="none" xmlns="http://www.w3.org/2000/svg">
<path d="M29.1343 2H2.86575C2.75634 2 2.64675 2 2.53754 2.00064C2.44522 2.0013 2.35312 2.00232 2.26102 2.00483C2.06015 2.01027 1.85756 2.02212 1.6592 2.05777C1.45768 2.09404 1.27015 2.15319 1.0872 2.24634C0.907346 2.3378 0.742688 2.45744 0.599994 2.60019C0.457238 2.74294 0.337606 2.90733 0.246161 3.08738C0.152996 3.27033 0.0937985 3.45791 0.0577814 3.65959C0.0219401 3.85801 0.0100098 4.06056 0.00459659 4.26121C0.00212198 4.35331 0.0010606 4.44542 0.000459349 4.5375C-0.000178636 4.64694 3.40259e-05 4.75631 3.40259e-05 4.86595V19.6204C3.40259e-05 19.73 -0.000178636 19.8392 0.000459349 19.9488C0.0010606 20.0409 0.00212198 20.133 0.00459659 20.2251C0.0100098 20.4256 0.0219401 20.6282 0.0577814 20.8265C0.0937985 21.0283 0.152996 21.2158 0.246161 21.3988C0.337606 21.5788 0.457238 21.7434 0.599994 21.8859C0.742688 22.0289 0.907346 22.1485 1.0872 22.2398C1.27015 22.3332 1.45768 22.3923 1.6592 22.4286C1.85756 22.464 2.06015 22.4761 2.26102 22.4815C2.35312 22.4836 2.44522 22.4848 2.53754 22.4853C2.64675 22.4861 2.75634 22.4861 2.86575 22.4861H29.1343C29.2435 22.4861 29.3531 22.4861 29.4623 22.4853C29.5544 22.4848 29.6465 22.4836 29.739 22.4815C29.9395 22.4761 30.142 22.464 30.3409 22.4286C30.5421 22.3923 30.7297 22.3332 30.9126 22.2398C31.0927 22.1485 31.2569 22.0289 31.3999 21.8859C31.5424 21.7434 31.662 21.5788 31.7537 21.3988C31.8471 21.2158 31.9062 21.0283 31.942 20.8265C31.9779 20.6282 31.9895 20.4256 31.995 20.2251C31.9975 20.133 31.9987 20.0409 31.9992 19.9488C32 19.8392 32 19.73 32 19.6204V4.86595C32 4.75631 32 4.64694 31.9992 4.5375C31.9987 4.44542 31.9975 4.35331 31.995 4.26121C31.9895 4.06056 31.9779 3.85801 31.942 3.65959C31.9062 3.45791 31.8471 3.27033 31.7537 3.08738C31.662 2.90733 31.5424 2.74294 31.3999 2.60019C31.2569 2.45744 31.0927 2.3378 30.9126 2.24634C30.7297 2.15319 30.5421 2.09404 30.3409 2.05777C30.142 2.02212 29.9395 2.01027 29.739 2.00483C29.6465 2.00232 29.5544 2.0013 29.4623 2.00064C29.3531 2 29.2435 2 29.1343 2Z" fill="#1C1C28"/>
<path d="M29.1341 2.68262L29.4572 2.68324C29.5447 2.68385 29.6323 2.6848 29.7203 2.6872C29.8734 2.69134 30.0525 2.69963 30.2195 2.72956C30.3646 2.7557 30.4864 2.79544 30.6032 2.85491C30.7185 2.91351 30.8241 2.9903 30.9164 3.08242C31.009 3.17516 31.0859 3.28099 31.1453 3.39759C31.2044 3.51349 31.2439 3.63463 31.2699 3.78082C31.2997 3.94596 31.308 4.12557 31.3122 4.27963C31.3145 4.36659 31.3157 4.45355 31.3161 4.54258C31.3169 4.65024 31.3169 4.75785 31.3169 4.86573V19.6202C31.3169 19.728 31.317 19.8355 31.3161 19.9454C31.3157 20.0324 31.3145 20.1193 31.3122 20.2064C31.308 20.3603 31.2997 20.5398 31.2695 20.7069C31.2439 20.851 31.2044 20.9722 31.145 21.0887C31.0858 21.205 31.009 21.3107 30.9168 21.4029C30.824 21.4957 30.7187 21.5722 30.602 21.6314C30.4861 21.6905 30.3646 21.7302 30.2209 21.7561C30.0505 21.7865 29.8639 21.7948 29.7233 21.7986C29.6349 21.8006 29.5469 21.8018 29.4568 21.8022C29.3493 21.8031 29.2415 21.8031 29.1341 21.8031H2.86551C2.86408 21.8031 2.86269 21.8031 2.86124 21.8031C2.75503 21.8031 2.6486 21.8031 2.54045 21.8022C2.45227 21.8018 2.36429 21.8006 2.27922 21.7987C2.13546 21.7948 1.94873 21.7865 1.77978 21.7563C1.63484 21.7302 1.51333 21.6905 1.39587 21.6306C1.28028 21.572 1.17505 21.4955 1.08223 21.4025C0.990126 21.3106 0.913587 21.2052 0.854409 21.0887C0.795173 20.9723 0.755541 20.8508 0.729482 20.7049C0.69936 20.5381 0.691085 20.3594 0.68695 20.2066C0.684589 20.1191 0.683603 20.0316 0.683043 19.9447L0.682617 19.6879L0.682637 19.6202V4.86573L0.682617 4.79794L0.683023 4.54176C0.683603 4.45428 0.684589 4.36682 0.68695 4.27942C0.691085 4.12647 0.699359 3.94761 0.729731 3.77945C0.75556 3.63486 0.795173 3.51333 0.854719 3.39639C0.913433 3.2808 0.990107 3.17528 1.08269 3.08271C1.17491 2.99045 1.28049 2.91376 1.39681 2.8546C1.51302 2.79542 1.63476 2.7557 1.7797 2.72962C1.9467 2.69961 2.12593 2.69134 2.27944 2.68718C2.36694 2.6848 2.45444 2.68385 2.54128 2.68326L2.86551 2.68262H29.1341Z" fill="white"/>
<path d="M8.73583 8.89027C9.00982 8.54756 9.19575 8.08741 9.14671 7.61719C8.74563 7.63713 8.25618 7.8818 7.97281 8.22477C7.71837 8.51848 7.49318 8.9979 7.55189 9.44841C8.00213 9.48747 8.45195 9.22336 8.73583 8.89027Z" fill="#1C1C28"/>
<path d="M9.14156 9.5363C8.4877 9.49735 7.93176 9.9074 7.6195 9.9074C7.30708 9.9074 6.82892 9.55593 6.31175 9.5654C5.63863 9.57529 5.01404 9.95588 4.67246 10.5612C3.96988 11.7721 4.48705 13.5684 5.17027 14.5546C5.50206 15.0425 5.90192 15.5798 6.4288 15.5605C6.92661 15.5409 7.12173 15.2381 7.72684 15.2381C8.3315 15.2381 8.50726 15.5605 9.03423 15.5507C9.5807 15.5409 9.92234 15.0625 10.2541 14.5741C10.6347 14.0179 10.7906 13.4809 10.8004 13.4514C10.7906 13.4416 9.74661 13.0411 9.73693 11.8403C9.72707 10.8348 10.5565 10.3565 10.5956 10.3268C10.1272 9.63404 9.39529 9.55593 9.14156 9.5363Z" fill="#1C1C28"/>
<path d="M14.8348 8.17578C16.256 8.17578 17.2456 9.1554 17.2456 10.5816C17.2456 12.013 16.2356 12.9977 14.7992 12.9977H13.2257V15.5H12.0889V8.17578H14.8348V8.17578ZM13.2257 12.0434H14.5302C15.52 12.0434 16.0833 11.5105 16.0833 10.5867C16.0833 9.66302 15.52 9.13513 14.5353 9.13513H13.2257V12.0434Z" fill="#1C1C28"/>
<path d="M17.5425 13.9824C17.5425 13.0484 18.2581 12.4749 19.5272 12.4038L20.9888 12.3176V11.9065C20.9888 11.3126 20.5878 10.9573 19.918 10.9573C19.2834 10.9573 18.8875 11.2618 18.7911 11.739H17.7557C17.8166 10.7745 18.6388 10.064 19.9585 10.064C21.2528 10.064 22.0801 10.7492 22.0801 11.8201V15.5H21.0294V14.6219H21.0041C20.6946 15.2158 20.0194 15.5913 19.319 15.5913C18.2734 15.5913 17.5425 14.9417 17.5425 13.9824ZM20.9888 13.5002V13.079L19.6742 13.1601C19.0194 13.2059 18.649 13.4952 18.649 13.952C18.649 14.4189 19.0347 14.7234 19.6235 14.7234C20.3899 14.7234 20.9888 14.1955 20.9888 13.5002Z" fill="#1C1C28"/>
<path d="M23.0723 17.4641V16.5758C23.1534 16.5961 23.3361 16.5961 23.4275 16.5961C23.935 16.5961 24.2092 16.3829 24.3766 15.8348C24.3766 15.8246 24.4731 15.5099 24.4731 15.5049L22.5444 10.1602H23.732L25.0823 14.505H25.1024L26.4527 10.1602H27.6099L25.61 15.7789C25.1533 17.0733 24.6254 17.4894 23.519 17.4894C23.4275 17.4894 23.1534 17.4793 23.0723 17.4641Z" fill="#1C1C28"/>
</svg>
