<svg width="32" height="24" viewBox="0 0 32 24" fill="none" xmlns="http://www.w3.org/2000/svg">
<g clip-path="url(#clip0_92_18396)">
<path d="M0 2.0249H32.2674V22H0V2.0249Z" fill="#79A73A"/>
<path d="M3.07227 8.7167C4.81067 8.19658 6.17071 6.83655 6.69083 5.09814H25.575C26.095 6.83665 27.455 8.19668 29.1935 8.7167V15.3085C27.455 15.8285 26.095 17.1885 25.575 18.927H6.91363H6.69006C6.17013 17.1888 4.81038 15.8288 3.07227 15.3085V8.7167Z" fill="#AAC16B"/>
<path d="M16.1343 15.8536C18.2559 15.8536 19.9757 14.1338 19.9757 12.0123C19.9757 9.89074 18.2559 8.1709 16.1343 8.1709C14.0128 8.1709 12.293 9.89074 12.293 12.0123C12.293 14.1338 14.0128 15.8536 16.1343 15.8536Z" fill="#79A73A"/>
<path d="M7.68234 12.7807C8.10664 12.7807 8.45061 12.4367 8.45061 12.0124C8.45061 11.5881 8.10664 11.2441 7.68234 11.2441C7.25803 11.2441 6.91406 11.5881 6.91406 12.0124C6.91406 12.4367 7.25803 12.7807 7.68234 12.7807Z" fill="#79A73A"/>
<path d="M24.5847 12.7807C25.009 12.7807 25.3529 12.4367 25.3529 12.0124C25.3529 11.5881 25.009 11.2441 24.5847 11.2441C24.1604 11.2441 23.8164 11.5881 23.8164 12.0124C23.8164 12.4367 24.1604 12.7807 24.5847 12.7807Z" fill="#79A73A"/>
</g>
<defs>
<clipPath id="clip0_92_18396">
<rect width="32" height="24" fill="white"/>
</clipPath>
</defs>
</svg>
