<svg width="28" height="22" viewBox="0 0 28 22" fill="none" xmlns="http://www.w3.org/2000/svg">
<path d="M2.8 0C2.05739 0 1.3452 0.289731 0.820101 0.805456C0.294999 1.32118 0 2.02065 0 2.75V8.25C0.742606 8.25 1.4548 8.53973 1.9799 9.05546C2.505 9.57118 2.8 10.2707 2.8 11C2.8 11.7293 2.505 12.4288 1.9799 12.9445C1.4548 13.4603 0.742606 13.75 0 13.75V19.25C0 19.9793 0.294999 20.6788 0.820101 21.1945C1.3452 21.7103 2.05739 22 2.8 22H25.2C25.9426 22 26.6548 21.7103 27.1799 21.1945C27.705 20.6788 28 19.9793 28 19.25V13.75C27.2574 13.75 26.5452 13.4603 26.0201 12.9445C25.495 12.4288 25.2 11.7293 25.2 11C25.2 10.2707 25.495 9.57118 26.0201 9.05546C26.5452 8.53973 27.2574 8.25 28 8.25V2.75C28 2.02065 27.705 1.32118 27.1799 0.805456C26.6548 0.289731 25.9426 0 25.2 0H2.8ZM18.9 4.125L21 6.1875L9.1 17.875L7 15.8125L18.9 4.125ZM9.534 4.18C10.906 4.18 12.012 5.26625 12.012 6.61375C12.012 7.25922 11.7509 7.87825 11.2862 8.33467C10.8215 8.79109 10.1912 9.0475 9.534 9.0475C8.162 9.0475 7.056 7.96125 7.056 6.61375C7.056 5.96828 7.31707 5.34925 7.78179 4.89283C8.2465 4.43641 8.87679 4.18 9.534 4.18ZM18.466 12.9525C19.838 12.9525 20.944 14.0387 20.944 15.3862C20.944 16.0317 20.6829 16.6508 20.2182 17.1072C19.7535 17.5636 19.1232 17.82 18.466 17.82C17.094 17.82 15.988 16.7337 15.988 15.3862C15.988 14.7408 16.2491 14.1217 16.7138 13.6653C17.1785 13.2089 17.8088 12.9525 18.466 12.9525Z" fill="#131C1B"/>
</svg>
