<svg width="32" height="32" viewBox="0 0 32 32" fill="none" xmlns="http://www.w3.org/2000/svg">
<path d="M3.35091 23.8906C3.50046 24.0365 3.74167 24.0365 3.89605 23.8906L10.5679 17.4162L16.7235 23.4577C16.8731 23.6036 17.1191 23.6036 17.2686 23.4577L30.5544 10.5043C30.704 10.3584 30.704 10.1185 30.5544 9.97261L28.644 8.10935C28.5715 8.0393 28.4736 8 28.3715 8C28.2694 8 28.1714 8.0393 28.0989 8.10935L17.0033 18.9266L10.8573 12.8945C10.7848 12.8245 10.6868 12.7852 10.5848 12.7852C10.4827 12.7852 10.3847 12.8245 10.3122 12.8945L1.44537 21.491C1.37354 21.5617 1.33325 21.6572 1.33325 21.7568C1.33325 21.8564 1.37354 21.9519 1.44537 22.0226L3.35091 23.8906Z" fill="#00A28A"/>
</svg>
