<svg width="29" height="29" viewBox="0 0 29 29" fill="none" xmlns="http://www.w3.org/2000/svg">
<path d="M15.1412 5.77221C15.0588 5.6934 14.9492 5.64941 14.8352 5.64941C14.7212 5.64941 14.6116 5.6934 14.5292 5.77221L4.34147 15.5045C4.2982 15.5459 4.26378 15.5956 4.24029 15.6507C4.2168 15.7058 4.20472 15.765 4.20479 15.8249L4.20312 24.959C4.20313 25.4286 4.38969 25.879 4.72178 26.2111C5.05388 26.5432 5.50429 26.7298 5.97394 26.7298H11.2919C11.5267 26.7298 11.7519 26.6365 11.918 26.4704C12.084 26.3044 12.1773 26.0792 12.1773 25.8444V18.3184C12.1773 18.201 12.224 18.0884 12.307 18.0054C12.39 17.9224 12.5026 17.8757 12.62 17.8757H17.047C17.1645 17.8757 17.2771 17.9224 17.3601 18.0054C17.4431 18.0884 17.4898 18.201 17.4898 18.3184V25.8444C17.4898 26.0792 17.583 26.3044 17.7491 26.4704C17.9151 26.6365 18.1403 26.7298 18.3752 26.7298H23.6909C24.1606 26.7298 24.611 26.5432 24.9431 26.2111C25.2752 25.879 25.4617 25.4286 25.4617 24.959V15.8249C25.4618 15.765 25.4497 15.7058 25.4262 15.6507C25.4027 15.5956 25.3683 15.5459 25.325 15.5045L15.1412 5.77221Z" fill="#131C1B"/>
<path d="M27.8333 13.6794L23.694 9.71941V3.71027C23.694 3.47544 23.6007 3.25023 23.4347 3.08419C23.2686 2.91814 23.0434 2.82486 22.8086 2.82486H20.1524C19.9175 2.82486 19.6923 2.91814 19.5263 3.08419C19.3603 3.25023 19.267 3.47544 19.267 3.71027V5.48108L16.0618 2.41647C15.7619 2.11321 15.3158 1.93945 14.8338 1.93945C14.3535 1.93945 13.9086 2.11321 13.6087 2.41702L1.8383 13.6783C1.4941 14.0103 1.45093 14.5565 1.76415 14.9162C1.8428 15.007 1.9391 15.0808 2.0472 15.1332C2.15529 15.1856 2.27292 15.2155 2.39292 15.2209C2.51291 15.2264 2.63277 15.2074 2.7452 15.1651C2.85763 15.1228 2.96027 15.0581 3.04688 14.9748L14.5295 4.00245C14.6119 3.92364 14.7215 3.87965 14.8355 3.87965C14.9495 3.87965 15.0591 3.92364 15.1415 4.00245L26.6252 14.9748C26.7944 15.1371 27.021 15.2256 27.2553 15.221C27.4896 15.2165 27.7126 15.1192 27.8753 14.9505C28.2151 14.5986 28.1869 14.0175 27.8333 13.6794Z" fill="#131C1B"/>
</svg>
