<svg width="58" height="60" viewBox="0 0 58 60" fill="none" xmlns="http://www.w3.org/2000/svg">
<path d="M44.1559 15C46.5967 20.425 46.0409 26.825 43.3584 32.025C41.0867 36.25 37.8242 39.825 35.045 43.75C33.8367 45.5 32.6284 47.375 31.7342 49.4C31.42 50.075 31.2025 50.775 30.9609 51.475C30.7192 52.175 30.5017 52.875 30.2842 53.575C30.0667 54.225 29.8009 55 29.0034 55C28.0609 55 27.795 53.9 27.6017 53.15C27.0217 51.325 26.4417 49.575 25.5475 47.9C24.5325 45.925 23.2517 44.1 21.9467 42.325L44.1559 15ZM22.0434 21.05L14.0684 30.85C15.5425 34.075 17.7417 36.825 19.8442 39.575C20.3517 40.2 20.8592 40.85 21.3425 41.525L31.42 29.175L31.3234 29.2C27.795 30.45 23.88 28.6 22.4784 25C22.285 24.575 22.14 24.075 22.0434 23.575C21.9104 22.7473 21.9104 21.9027 22.0434 21.075V21.05ZM15.905 11.55L15.8809 11.575C11.9659 16.7 11.2892 23.825 13.6334 29.85L23.2759 18L23.155 17.875L15.905 11.55ZM34.3684 5.9L26.5867 15.425L26.6834 15.4C29.9217 14.25 33.5467 15.7 35.19 18.75C35.5525 19.45 35.8425 20.2 35.9392 20.95C36.0842 21.9 36.1325 22.575 35.9634 23.5V23.525L43.6967 14.025C41.6752 10.2235 38.3586 7.33612 34.3925 5.925L34.3684 5.9ZM23.9042 17.225L33.3534 5.6L33.2567 5.575C31.855 5.2 30.4292 5 29.0034 5C24.2425 5 19.7475 7.125 16.5575 10.775L16.5092 10.8L23.9042 17.225Z" fill="#F2B15A"/>
<g clip-path="url(#clip0_92_13556)">
<path d="M21.4102 43.8909C22.8129 45.8259 24.0897 47.8641 25.2311 49.9909C26.2056 51.9911 26.6119 53.3473 27.3241 55.7573C27.7609 57.0889 28.1557 57.4863 29.0044 57.4863C29.9293 57.4863 30.3489 56.8102 30.6731 55.7646C31.3463 53.4887 31.8746 51.7517 32.708 50.1105C34.3433 46.9419 36.3755 44.1262 38.3722 41.4201C38.9127 40.6542 42.4076 36.1923 43.981 32.6716C43.981 32.6716 45.9147 28.8042 45.9147 23.403C45.9147 18.3507 44.0077 14.8467 44.0077 14.8467L38.517 16.4383L35.1826 25.9442L34.3576 27.255L34.1927 27.4925L33.9733 27.7897L33.5882 28.2645L33.0379 28.86L30.0686 31.4784L22.6451 36.1179L21.4102 43.8909Z" fill="#34A853"/>
<path d="M13.7542 32.0215C15.566 36.5009 19.0598 40.4385 21.4236 43.8941L33.9791 27.7959C33.9791 27.7959 32.2102 30.2999 29.0016 30.2999C25.4276 30.2999 22.5402 27.2107 22.5402 23.3154C22.5402 20.6442 24.0249 18.8091 24.0249 18.8091L15.502 21.281L13.7542 32.0215Z" fill="#FBBC04"/>
<path d="M34.1145 5.82778C38.2845 7.28305 41.8536 10.3382 44.0125 14.8433L33.9781 27.7864C33.9781 27.7864 35.4628 25.9181 35.4628 23.2635C35.4628 19.2775 32.3619 16.2997 29.012 16.2997C25.8442 16.2997 24.0249 18.7996 24.0249 18.7996V10.6456L34.1145 5.82764V5.82778Z" fill="#4285F4"/>
<path d="M16.0481 11.5468C18.5387 8.32138 22.9212 5 28.963 5C31.8944 5 34.1028 5.83299 34.1028 5.83299L24.0141 18.8068H16.8662L16.0481 11.5468Z" fill="#1A73E8"/>
<path d="M13.7501 32.0214C13.7501 32.0214 12.0833 28.4884 12.0833 23.37C12.0833 18.5324 13.8206 14.3038 16.0501 11.5469L24.0218 18.808L13.7501 32.0214Z" fill="#EA4335"/>
</g>
<defs>
<clipPath id="clip0_92_13556">
<rect width="33.8333" height="52.5" fill="white" transform="translate(12.0833 5)"/>
</clipPath>
</defs>
</svg>