<svg width="32" height="32" viewBox="0 0 32 32" fill="none" xmlns="http://www.w3.org/2000/svg">
<path d="M28.6491 23.8906C28.4995 24.0365 28.2583 24.0365 28.104 23.8906L21.4321 17.4162L15.2765 23.4577C15.1269 23.6036 14.8809 23.6036 14.7314 23.4577L1.44558 10.5043C1.29603 10.3584 1.29603 10.1185 1.44558 9.97261L3.35596 8.10935C3.42849 8.0393 3.52644 8 3.62852 8C3.73059 8 3.82855 8.0393 3.90108 8.10935L14.9967 18.9266L21.1427 12.8945C21.2152 12.8245 21.3132 12.7852 21.4152 12.7852C21.5173 12.7852 21.6153 12.8245 21.6878 12.8945L30.5546 21.491C30.6265 21.5617 30.6667 21.6572 30.6667 21.7568C30.6667 21.8564 30.6265 21.9519 30.5546 22.0226L28.6491 23.8906Z" fill="#C0392B"/>
</svg>
