<svg width="30" height="30" viewBox="0 0 30 30" fill="none" xmlns="http://www.w3.org/2000/svg">
<path d="M24.5196 12.9907H16.5899C15.8688 12.9907 15.1773 12.7043 14.6674 12.1944C14.1576 11.6846 13.8711 10.993 13.8711 10.272V2.34229C13.8711 2.2822 13.8473 2.22457 13.8048 2.18208C13.7623 2.13959 13.7046 2.11572 13.6446 2.11572H8.43362C7.47221 2.11572 6.55018 2.49764 5.87036 3.17746C5.19054 3.85728 4.80862 4.77931 4.80862 5.74072V23.8657C4.80862 24.8271 5.19054 25.7492 5.87036 26.429C6.55018 27.1088 7.47221 27.4907 8.43362 27.4907H21.1211C22.0825 27.4907 23.0046 27.1088 23.6844 26.429C24.3642 25.7492 24.7461 24.8271 24.7461 23.8657V13.2173C24.7461 13.1572 24.7223 13.0996 24.6798 13.0571C24.6373 13.0146 24.5796 12.9907 24.5196 12.9907Z" fill="#131C1B"/>
<path d="M24.0223 10.9863L15.8768 2.8408C15.8609 2.82506 15.8408 2.81434 15.8189 2.81001C15.797 2.80568 15.7743 2.80792 15.7536 2.81646C15.733 2.82499 15.7153 2.83944 15.7029 2.85798C15.6904 2.87652 15.6837 2.89833 15.6836 2.92067V10.2732C15.6836 10.5135 15.7791 10.744 15.9491 10.914C16.119 11.084 16.3495 11.1794 16.5899 11.1794H23.9424C23.9647 11.1793 23.9865 11.1726 24.0051 11.1602C24.0236 11.1477 24.0381 11.1301 24.0466 11.1094C24.0551 11.0888 24.0574 11.0661 24.053 11.0442C24.0487 11.0223 24.038 11.0021 24.0223 10.9863Z" fill="#131C1B"/>
</svg>
