<svg width="13" height="13" viewBox="0 0 13 13" fill="none" xmlns="http://www.w3.org/2000/svg">
<path fillRule="evenodd" clipRule="evenodd" d="M8.83186 7.68958L12.7406 11.6016C13.0579 11.919 13.0579 12.4342 12.7406 12.7516C12.5823 12.9103 12.3743 12.9899 12.1662 12.9899C11.9582 12.9899 11.7502 12.9103 11.5915 12.7516L7.68279 8.83964C6.88733 9.40592 5.91729 9.7424 4.8669 9.7424C2.1791 9.7424 0 7.56132 0 4.8712C0 2.18109 2.1791 0 4.8669 0C7.55468 0 9.73378 2.18109 9.73376 4.8712C9.73376 5.92258 9.39764 6.89355 8.83186 7.68958ZM7.19097 7.1972L7.50997 6.74826C7.90361 6.19456 8.11164 5.54546 8.11128 4.87122C8.11128 3.08064 6.65581 1.62375 4.86666 1.62375C3.07752 1.62375 1.62207 3.08064 1.62207 4.87122C1.62207 6.66178 3.07752 8.11868 4.86666 8.11868C5.54052 8.11868 6.18912 7.91043 6.74227 7.51667L7.19097 7.1972Z" fill="#F3CB8E"/>
</svg>
