<svg width="31" height="31" viewBox="0 0 31 31" fill="none" xmlns="http://www.w3.org/2000/svg">
<path d="M28.4307 7.29811C28.3609 7.16243 28.2601 7.04516 28.1365 6.95582C28.0128 6.86649 27.8698 6.80762 27.7191 6.78402C27.5683 6.76041 27.4142 6.77274 27.2691 6.81998C27.1241 6.86723 26.9922 6.94807 26.8843 7.05592L23.1643 10.7783C22.9817 10.9583 22.7356 11.0592 22.4792 11.0592C22.2229 11.0592 21.9768 10.9583 21.7942 10.7783L20.186 9.16779C20.0961 9.07783 20.0247 8.97103 19.976 8.85348C19.9273 8.73593 19.9022 8.60994 19.9022 8.48271C19.9022 8.35547 19.9273 8.22948 19.976 8.11193C20.0247 7.99438 20.0961 7.88758 20.186 7.79762L23.8903 4.09276C24.0013 3.98172 24.0837 3.84536 24.1304 3.69542C24.177 3.54547 24.1865 3.38644 24.158 3.23201C24.1295 3.07758 24.0639 2.93239 23.9669 2.80895C23.8698 2.6855 23.7442 2.5875 23.6009 2.52338C20.803 1.27248 17.3107 1.92518 15.1086 4.11092C13.2377 5.9685 12.68 8.87111 13.5798 12.0746C13.6283 12.2455 13.6286 12.4264 13.5806 12.5974C13.5326 12.7684 13.4382 12.9227 13.3079 13.0434L3.22807 22.2495C2.83539 22.6021 2.51865 23.031 2.29718 23.51C2.0757 23.989 1.95414 24.5081 1.93989 25.0357C1.92565 25.5632 2.01902 26.0881 2.21433 26.5784C2.40963 27.0687 2.70276 27.514 3.07585 27.8873C3.44893 28.2605 3.89414 28.5538 4.38432 28.7493C4.8745 28.9449 5.39938 29.0385 5.92693 29.0245C6.45447 29.0105 6.97364 28.8891 7.45275 28.6679C7.93186 28.4466 8.36087 28.13 8.71362 27.7375L18.0185 17.6353C18.1374 17.5066 18.2891 17.4129 18.4574 17.3641C18.6256 17.3154 18.804 17.3135 18.9733 17.3586C19.8853 17.6085 20.8261 17.7381 21.7718 17.7443C23.794 17.7443 25.5686 17.0897 26.8486 15.8286C29.219 13.4933 29.5805 9.53228 28.4307 7.29811ZM6.02473 27.0745C5.62597 27.1181 5.22353 27.0367 4.87295 26.8418C4.52237 26.6469 4.24093 26.3479 4.06749 25.9862C3.89404 25.6245 3.83713 25.2179 3.90461 24.8225C3.9721 24.4271 4.16064 24.0624 4.44424 23.7787C4.72783 23.495 5.09248 23.3063 5.48787 23.2387C5.88326 23.1711 6.28989 23.2278 6.65165 23.4012C7.0134 23.5745 7.31244 23.8558 7.5075 24.2063C7.70256 24.5568 7.78402 24.9592 7.74063 25.358C7.69289 25.7968 7.49679 26.2061 7.18476 26.5182C6.87273 26.8304 6.46348 27.0266 6.02473 27.0745Z" fill="#131C1B"/>
</svg>
